<svg width="107" viewBox="0 0 110 50" fill="none" xmlns="http://www.w3.org/2000/svg">
   <path d="M5.8 44.7C5.8 44.7 5.8 46.7 4.8 47.6C4 48.3 2.89999 48.5 2.89999 48.5L0.800003 48.8C0.800003 48.8 0.399994 48.9 0.399994 49.2C0.399994 49.5 0.699997 49.5 0.699997 49.5C0.699997 49.5 8.09999 49.5 10.9 49.5C13.7 49.5 19.7 49.5 19.7 49.5C19.7 49.5 20.1 49.5 20.1 49.2C20.1 48.9 19.7 48.9 19.7 48.9L18 48.6C18 48.6 16.7 48.3 15.9 47.6C14.9 46.6 15 45 15 45C15 45 15 44.8 15 44.4L30.9 18V43.3C30.9 43.3 30.9 46.1 30.3 47.1C29.7 48.1 27.9 48.7 27.9 48.7L26.5 48.9C26.5 48.9 25.8 49.1 25.7 49.4C25.7 49.6 26.5 49.6 26.5 49.6H44.8C44.8 49.6 45.4 49.7 45.4 49.4C45.4 49.1 44.9 48.9 44.9 48.9L43.2 48.7C43.2 48.7 41.7 48.4 41.1 47.7C40.5 47 39.8 44.4 39.8 44.4V30.3C39.8 30.3 39.9 30 40.1 29.7C40.3 29.4 41.2 29.3 42.2 30C43.2 30.7 43.4 31.1 43.4 31.1L53.8 44.9C53.8 44.9 55.6 47.7 57.5 48.6C59.5 49.5 63.2 49.7 63.2 49.7H83.9C83.9 49.7 84.4 49.8 84.4 49.4C84.4 49 83.7 48.8 83.7 48.8L82.5 48.6C82.5 48.6 80.8 48.5 79.9 47.4C79 46.4 79 44.4 79 44.4L94.5 18.6C94.5 18.6 94.7 18.3 94.9 18.3C95.2 18.4 95.1 18.6 95.1 18.6C95.1 18.6 95.3 28.1 95.3 31.1C95.4 34.1 95.4 44 95.4 44C95.4 44 95.4 45.6 94.9 46.7C94.1 48.2 92.2 48.6 92.2 48.6L90.9 48.8C90.9 48.8 90.3 48.8 90.3 49.2C90.3 49.6 90.8 49.7 90.8 49.7H109.5C109.5 49.7 110 49.6 110 49.3C110 49 109.4 49 109.4 49L108.1 48.8C108.1 48.8 106.6 48.5 105.8 47.8C104.5 46.7 104.4 44.3 104.4 44.3L104.1 13.8C104.1 13.8 104.1 11.4 105.4 10.3C106.7 9.20003 108 9.30003 108 9.30003L109.4 9.20002C109.4 9.20002 109.8 9.10002 109.8 8.90002C109.8 8.70002 109.3 8.70002 109.3 8.70002C109.3 8.70002 102.4 8.70002 100.5 8.70002C98.6 8.70002 90.7 8.70002 90.7 8.70002C90.7 8.70002 90.2 8.70002 90.2 9.00002C90.2 9.30002 90.6 9.40002 90.6 9.40002L92.3 9.70002C92.3 9.70002 93.5 9.80002 94.3 10.7C95.1 11.6 95.2 13.1 95.2 13.1V13.9L80 39.1C80 39.1 79.7 39.6 79.4 39.4C79.1 39.3 79.1 38.9 79.1 38.9V13.8C79.1 13.8 79 11.7 80.1 10.6C81 9.60002 82.5 9.40002 82.5 9.40002L83.8 9.20002C83.8 9.20002 84.1 9.10002 84.1 8.90002C84.1 8.60002 83.7 8.70002 83.7 8.70002C83.7 8.70002 77.7 8.90002 75 8.90002C72.9 8.90002 69.2 8.80002 67.5 8.70002C66.4 6.00002 64.4 3.70003 62 2.30003L50.8 20.3L48.4 24.2L47.8 25.1C49.9 26.5 52.4 27.3 55.2 27.3C62.6 27.3 68.7 21.3 68.7 13.8C68.7 12.5 68.5 11.3 68.2 10.1C68.6 10.3 69.2 10.7 69.5 11.2C70 12 70.2 13.8 70.2 13.8L70.5 39.5C70.5 39.5 70.5 45.7 69.9 47.4C69.7 48 69.1 48.6 68.6 48.7C67.1 49 64.3 45.2 64.3 45.2L55.2 33.2C55.2 33.2 53 30.1 50.8 29C48.6 27.9 44.3 27.6 44.3 27.6H40V13.4C40 13.4 40.1 12 40.8 11.2C41.2 10.7 41.9 10.4 42.3 10.2C42 11.4 41.8 12.6 41.8 13.8C41.8 17.2 43.1 20.3 45.1 22.7L45.7 21.7L52.7 10.6L58.8 0.900024C57.7 0.600024 56.5 0.400024 55.3 0.400024C49.7 0.400024 44.9 3.80002 42.8 8.70002C41.5 8.80002 38 8.90002 35.8 8.90002C33 8.90002 26.8 8.70002 26.8 8.70002C26.8 8.70002 26.3 8.60002 26.3 9.10002C26.3 9.40002 26.8 9.50002 26.8 9.50002L28.1 9.70002C28.1 9.70002 29.8 9.90002 30.5 10.9C31.4 12.1 31.4 13.6 31.4 13.6V13.9L16.4 38.8C16.4 38.8 15.9 39.7 15.7 39.4C15.6 39.2 15.5 39.1 15.4 39C15.3 32 15.3 21.2 15.3 19.7C15.3 17.5 15.4 13.3 15.4 13.3C15.4 13.3 15.5 11.8 16.3 10.9C17.1 10 18.2 9.80003 18.2 9.80003L20 9.40002C20 9.40002 20.4 9.30002 20.4 9.10002C20.4 8.60002 19.9 8.70002 19.9 8.70002H1.3C1.3 8.70002 0.800003 8.60002 0.800003 9.10002C0.800003 9.50002 1.3 9.50002 1.3 9.50002L3.10001 9.80003C3.10001 9.80003 4.2 10 5.3 11.1C6.3 12.1 6.3 14.6 6.3 14.6C6.4 26.7 6.39999 26.8 6.39999 29.5C5.99999 31.5 5.8 44.7 5.8 44.7ZM54.9 1.30003C55.5 1.30003 56.1 1.30002 56.7 1.40002L44.7 20.6C43.3 18.6 42.5 16.2 42.5 13.6C42.6 6.80002 48.1 1.30003 54.9 1.30003Z" fill="#1F2949"/>
  <path d="M58.5 0.700012C57.4 0.400012 56.2 0.200012 54.9 0.200012C47.5 0.200012 41.4 6.20001 41.4 13.7C41.4 17.1 42.7 20.2 44.8 22.6L58.5 0.700012Z" fill="#55945E"/>
  <path d="M58.5 0.700012L44.8 22.6C45.6 23.5 46.6 24.4 47.6 25.1L61.9 2.20001C60.9 1.50001 59.7 1.00001 58.5 0.700012Z" fill="#73C0D9"/>
</svg> 
